<?xml version="1.0" standalone="no"?><!DOCTYPE svg PUBLIC "-//W3C//DTD SVG 1.1//EN" "http://www.w3.org/Graphics/SVG/1.1/DTD/svg11.dtd"><svg t="1611902235999" class="icon" viewBox="0 0 1024 1024" version="1.1" xmlns="http://www.w3.org/2000/svg" p-id="2172" width="24" height="24" xmlns:xlink="http://www.w3.org/1999/xlink"><defs><style type="text/css"></style></defs><path d="M780.1 256l32.2-55.7c10.9-18.8 4.4-42.9-14.4-53.8-18.9-10.9-42.9-4.4-53.8 14.4l-39.4 68.2c-4.3 7.5-5.2 15.7-4.4 23.7H323.7c0.8-8 0-16.2-4.4-23.7L280 160.8c-10.9-18.8-35-25.3-53.8-14.4-18.8 10.9-25.3 35-14.4 53.8l32.2 55.7c-71.8 14.7-125.7 78.2-125.7 154.3v315.1c0 87 70.5 157.5 157.5 157.5h472.6c87 0 157.5-70.5 157.5-157.5v-315c-0.1-76.1-54-139.6-125.8-154.3z m47 469.3c0 43.4-35.3 78.8-78.8 78.8H275.7c-43.4 0-78.8-35.3-78.8-78.8v-315c0-43.4 35.3-78.8 78.8-78.8h472.6c43.4 0 78.8 35.3 78.8 78.8v315zM39.4 449.6C17.6 449.6 0 467.3 0 489v157.5c0 21.8 17.6 39.4 39.4 39.4s39.4-17.6 39.4-39.4V489c0-21.7-17.7-39.4-39.4-39.4zM984.6 449.6c-21.8 0-39.4 17.6-39.4 39.4v157.5c0 21.8 17.6 39.4 39.4 39.4s39.4-17.6 39.4-39.4V489c0-21.7-17.6-39.4-39.4-39.4z" p-id="2173"></path><path d="M382.4 552.4m-59.1 0a59.1 59.1 0 1 0 118.2 0 59.1 59.1 0 1 0-118.2 0Z" p-id="2174"></path><path d="M641.6 555.9m-59.1 0a59.1 59.1 0 1 0 118.2 0 59.1 59.1 0 1 0-118.2 0Z" p-id="2175"></path></svg>