<?xml version="1.0" encoding="utf-8"?>
<!-- Generator: Adobe Illustrator 25.2.3, SVG Export Plug-In . SVG Version: 6.00 Build 0)  -->
<svg version="1.1" id="Layer_1" xmlns="http://www.w3.org/2000/svg" xmlns:xlink="http://www.w3.org/1999/xlink" x="0px" y="0px"
	 viewBox="0 0 350 100" style="enable-background:new 0 0 350 100;" xml:space="preserve">
<style type="text/css">
	.st0{fill:#FF5543;}
	.st1{fill:#A112FF;}
	.st2{fill:#00CBEC;}
	.st3{fill:#FFFFFF;}
</style>
<rect y="-0.4" width="350" height="100.4"/>
<g>
	<g>
		<g>
			<path class="st0" d="M53.4,76.1c-2.8,0.5-5.5-1.3-6-4.1l-7.6-41.5c-0.5-2.8,1.3-5.5,4.1-6c2.8-0.5,5.5,1.3,6,4.1l7.6,41.5
				C58,72.8,56.1,75.6,53.4,76.1z"/>
		</g>
		<g>
			<path class="st1" d="M33.5,68.9c-1.8,0.3-3.6-0.3-4.9-1.7c-1.8-2.2-1.6-5.4,0.6-7.2l32.1-27.3c2.2-1.8,5.4-1.6,7.2,0.6
				c1.8,2.2,1.6,5.4-0.6,7.2l-32,27.3C35.2,68.4,34.3,68.8,33.5,68.9z"/>
		</g>
		<g>
			<g>
				<path class="st2" d="M69.4,62.3c-0.9,0.2-1.8,0.1-2.6-0.2L27,48c-2.7-1-4.1-3.9-3.1-6.6c1-2.7,3.9-4.1,6.6-3.1l39.7,14.1
					c2.7,1,4.1,3.9,3.1,6.6C72.7,60.8,71.1,62,69.4,62.3z"/>
			</g>
		</g>
	</g>
	<path class="st3" d="M102.6,57.3c0-1-0.4-1.8-1.1-2.4c-0.7-0.6-1.6-1.2-2.7-1.7s-2.3-1-3.6-1.6c-1.3-0.5-2.5-1.2-3.6-2
		c-1.1-0.8-2-1.8-2.7-3c-0.7-1.2-1.1-2.7-1.1-4.5c0-1.6,0.3-3,0.8-4.1c0.5-1.2,1.3-2.1,2.3-2.9c1-0.8,2.1-1.3,3.5-1.7
		c1.3-0.4,2.8-0.6,4.5-0.6c1.9,0,3.7,0.2,5.3,0.5s3.1,0.8,4.1,1.4l-2,5.3c-0.7-0.4-1.7-0.8-3.1-1.1c-1.4-0.4-2.8-0.5-4.4-0.5
		c-1.5,0-2.6,0.3-3.4,0.9c-0.8,0.6-1.2,1.4-1.2,2.4c0,0.9,0.4,1.7,1.1,2.3c0.7,0.6,1.6,1.2,2.7,1.7s2.3,1.1,3.6,1.6
		c1.3,0.6,2.5,1.2,3.6,2c1.1,0.8,2,1.8,2.7,2.9c0.7,1.2,1.1,2.6,1.1,4.3s-0.3,3.2-0.9,4.5s-1.4,2.3-2.4,3.1c-1,0.8-2.3,1.5-3.8,1.9
		c-1.5,0.4-3.1,0.6-4.9,0.6c-2.3,0-4.4-0.2-6.1-0.7c-1.8-0.4-3.1-0.9-3.9-1.3l2-5.4c0.3,0.2,0.8,0.4,1.3,0.6
		c0.5,0.2,1.2,0.4,1.8,0.6c0.7,0.2,1.4,0.3,2.2,0.5c0.8,0.1,1.5,0.2,2.3,0.2c1.9,0,3.3-0.3,4.3-1C102.1,59.5,102.6,58.7,102.6,57.3z
		"/>
	<path class="st3" d="M111.7,54.5c0-3.9,1-7,2.9-9.1c1.9-2.1,4.6-3.2,8.1-3.2c1.9,0,3.5,0.3,4.8,0.9c1.4,0.6,2.5,1.4,3.4,2.5
		s1.6,2.4,2,3.9s0.7,3.2,0.7,5c0,3.9-1,7-2.9,9.1c-1.9,2.1-4.6,3.2-8.1,3.2c-1.9,0-3.5-0.3-4.8-0.9c-1.4-0.6-2.5-1.4-3.4-2.5
		c-0.9-1.1-1.6-2.4-2-3.9C111.9,58,111.7,56.2,111.7,54.5z M117.9,54.5c0,1,0.1,2,0.3,2.8c0.2,0.9,0.5,1.6,0.8,2.3
		c0.4,0.7,0.9,1.2,1.5,1.5c0.6,0.4,1.3,0.5,2.2,0.5c1.6,0,2.8-0.6,3.5-1.7c0.8-1.1,1.2-3,1.2-5.4c0-2.1-0.4-3.9-1.1-5.2
		s-1.9-2-3.6-2c-1.5,0-2.7,0.6-3.5,1.7C118.3,50,117.9,51.8,117.9,54.5z"/>
	<path class="st3" d="M142.7,42.8V56c0,1.9,0.2,3.3,0.7,4.1c0.4,0.8,1.3,1.3,2.6,1.3c1.1,0,2.1-0.3,2.9-1c0.8-0.7,1.3-1.5,1.7-2.5
		v-15h6v16.2c0,1.3,0.1,2.5,0.2,3.7c0.1,1.2,0.3,2.3,0.6,3.3h-4.6l-1.1-3.4h-0.2c-0.7,1.2-1.7,2.2-3,2.9c-1.3,0.8-2.8,1.2-4.5,1.2
		c-1.2,0-2.2-0.2-3.2-0.5c-0.9-0.3-1.7-0.8-2.3-1.5c-0.6-0.7-1.1-1.7-1.4-2.9c-0.3-1.2-0.5-2.8-0.5-4.7V42.8H142.7z"/>
	<path class="st3" d="M174.1,48.5c-1-0.3-1.8-0.5-2.6-0.5c-1.1,0-2,0.3-2.7,0.9c-0.7,0.6-1.2,1.3-1.5,2.2v15h-6V42.8h4.7l0.7,3.1
		h0.2c0.5-1.1,1.2-2,2.1-2.7s2-0.9,3.2-0.9c0.8,0,2.5,0.4,3.4,0.8L174.1,48.5z"/>
	<path class="st3" d="M193.7,64.7c-0.9,0.7-2.1,1.2-3.4,1.6c-1.3,0.4-2.7,0.5-4.1,0.5c-1.9,0-3.4-0.3-4.7-0.9s-2.3-1.4-3.1-2.5
		s-1.4-2.4-1.7-3.9c-0.4-1.5-0.5-3.2-0.5-5c0-3.9,0.9-7,2.7-9.1c1.8-2.1,4.3-3.2,7.7-3.2c1.7,0,3.1,0.1,4.1,0.4s2,0.6,2.8,1.1
		l-1.4,4.9c-0.7-0.3-1.4-0.6-2.1-0.8c-0.7-0.2-1.5-0.3-2.4-0.3c-1.7,0-2.9,0.6-3.8,1.7c-0.9,1.1-1.3,2.9-1.3,5.3
		c0,1,0.1,1.9,0.3,2.7s0.5,1.6,1,2.2c0.4,0.6,1,1.1,1.7,1.5s1.5,0.5,2.4,0.5c1,0,1.9-0.1,2.6-0.4c0.7-0.3,1.3-0.6,1.9-1L193.7,64.7z
		"/>
	<path class="st3" d="M215,64.1c-0.9,0.7-2.2,1.4-3.8,1.9s-3.3,0.8-5.1,0.8c-3.8,0-6.5-1.1-8.2-3.3s-2.6-5.2-2.6-9
		c0-4.1,1-7.2,2.9-9.2s4.7-3.1,8.2-3.1c1.2,0,2.3,0.2,3.4,0.5c1.1,0.3,2.1,0.8,3,1.5c0.9,0.7,1.6,1.7,2.1,2.9s0.8,2.7,0.8,4.5
		c0,0.7,0,1.3-0.1,2.1c-0.1,0.7-0.2,1.5-0.3,2.3h-14c0.1,2,0.6,3.4,1.5,4.4s2.4,1.5,4.4,1.5c1.3,0,2.4-0.2,3.4-0.6
		c1-0.4,1.8-0.8,2.3-1.2L215,64.1z M206.3,47c-1.6,0-2.8,0.5-3.5,1.4c-0.8,0.9-1.2,2.2-1.4,3.8h8.6c0.1-1.7-0.1-3-0.8-3.9
		C208.7,47.5,207.7,47,206.3,47z"/>
	<path class="st3" d="M239.2,66.1c0,3.4-0.9,5.9-2.7,7.5c-1.8,1.6-4.4,2.4-7.7,2.4c-2.2,0-4-0.2-5.3-0.5c-1.3-0.3-2.3-0.6-2.9-1
		l1.3-4.8c0.7,0.3,1.5,0.6,2.5,0.8c1,0.2,2.1,0.4,3.5,0.4c2.1,0,3.5-0.5,4.3-1.4c0.8-0.9,1.1-2.2,1.1-3.8v-1.4h-0.2
		c-1.1,1.5-3,2.2-5.8,2.2c-3,0-5.2-0.9-6.7-2.8s-2.2-4.8-2.2-8.7c0-4.2,1-7.3,3-9.4c2-2.1,4.9-3.2,8.6-3.2c2,0,3.8,0.1,5.3,0.4
		s2.8,0.6,3.8,1L239.2,66.1L239.2,66.1z M229,61.5c1.2,0,2.1-0.3,2.7-0.8c0.6-0.5,1.1-1.3,1.5-2.4V48c-1-0.4-2.2-0.6-3.6-0.6
		c-1.6,0-2.8,0.6-3.6,1.7c-0.9,1.2-1.3,3-1.3,5.6c0,2.3,0.4,4,1.1,5.2C226.5,61,227.6,61.5,229,61.5z"/>
	<path class="st3" d="M256.7,48.5c-1-0.3-1.8-0.5-2.6-0.5c-1.1,0-2,0.3-2.7,0.9c-0.7,0.6-1.2,1.3-1.5,2.2v15h-6V42.8h4.7l0.7,3.1
		h0.2c0.5-1.1,1.2-2,2.1-2.7s2-0.9,3.2-0.9c0.8,0,1.7,0.2,2.7,0.5L256.7,48.5z"/>
	<path class="st3" d="M259.6,44c1.2-0.6,2.1-0.8,3.8-1.1c1.7-0.3,3.5-0.5,5.3-0.5c1.6,0,3,0.2,4,0.6s1.9,0.9,2.6,1.7
		c0.6,0.7,1.1,1.6,1.3,2.6c0.3,1,0.4,2.1,0.4,3.3c0,1.4,0,2.7-0.1,4.1s-0.1,2.7-0.2,4.1c0,1.3,0,2.6,0.1,3.9s0.3,2.4,0.7,3.6h-4.9
		l-1-3.2l0,0c-0.6,1-1.5,1.8-2.6,2.5c-1.1,0.7-2.5,1-4.3,1c-1.1,0-2.1-0.2-2.9-0.5c-0.9-0.3-1.6-0.8-2.2-1.4
		c-0.6-0.6-1.1-1.3-1.4-2.1s-0.5-1.7-0.5-2.8c0-1.4,0.3-2.6,1-3.6s1.5-1.8,2.7-2.4c1.2-0.6,2.6-1,4.3-1.3c1.7-0.3,3.5-0.3,5.6-0.2
		c0.2-1.7,0.1-3-0.4-3.7c-0.5-0.8-1.5-1.1-3.1-1.1c-1.2,0-2.5,0.1-3.8,0.4c-1.3,0.3-1.9,0.4-2.7,0.8L259.6,44z M266.7,61.5
		c1.2,0,2.2-0.3,2.9-0.8s1.2-1.1,1.6-1.7v-3c-1-0.1-1.9-0.1-2.8,0c-0.9,0.1-1.7,0.2-2.3,0.4s-1.2,0.5-1.6,0.9
		c-0.4,0.4-0.6,0.9-0.6,1.5c0,0.9,0.3,1.5,0.8,2C265.1,61.2,265.8,61.5,266.7,61.5z"/>
	<path class="st3" d="M281.7,42.8h4.4l0.7,2.8h0.2c0.8-1.2,1.8-2,2.9-2.6s2.4-0.8,4-0.8c2.9,0,5.1,0.9,6.6,2.8s2.2,4.8,2.2,8.9
		c0,2-0.2,3.8-0.7,5.4s-1.2,3-2.1,4.1s-2,2-3.3,2.6s-2.8,0.9-4.5,0.9c-1,0-1.8-0.1-2.4-0.2c-0.6-0.1-1.2-0.4-1.9-0.7v9.5h-6V42.8
		H281.7z M292,47.2c-1.2,0-2.1,0.3-2.8,0.9c-0.7,0.6-1.2,1.5-1.6,2.7v9.7c0.4,0.3,0.9,0.6,1.4,0.8s1.2,0.3,2,0.3
		c1.7,0,3-0.6,3.9-1.8s1.3-3.2,1.3-6.1c0-2-0.3-3.6-1-4.7C294.6,47.8,293.5,47.2,292,47.2z"/>
	<path class="st3" d="M320.2,66.1V52.8c0-1.9-0.3-3.3-0.8-4.1s-1.5-1.3-2.9-1.3c-1,0-2,0.3-2.8,1c-0.9,0.7-1.4,1.6-1.7,2.7v14.8h-6
		V33.5h6v11.9h0.2c0.7-1,1.7-1.8,2.7-2.4c1.1-0.6,2.5-0.9,4.1-0.9c1.2,0,2.2,0.2,3.1,0.5s1.7,0.8,2.3,1.5s1.1,1.7,1.3,2.9
		c0.2,1.2,0.4,2.7,0.4,4.5v14.5C326.1,66.1,320.2,66.1,320.2,66.1z"/>
</g>
</svg>
