<?xml version="1.0" encoding="utf-8"?>
<!-- Generator: Adobe Illustrator 21.0.2, SVG Export Plug-In . SVG Version: 6.00 Build 0)  -->
<svg version="1.1" id="Layer_1" xmlns="http://www.w3.org/2000/svg" xmlns:xlink="http://www.w3.org/1999/xlink" x="0px" y="0px"
	 viewBox="0 0 312.8 52.8" style="enable-background:new 0 0 312.8 52.8;" xml:space="preserve">
<style type="text/css">
	.st0{fill:#F96216;}
	.st1{fill:#B200F8;}
	.st2{fill:#00B4F2;}
	.st3{fill:#242427;}
</style>
<path class="st0" d="M15.6,6.8l11.7,41.9c0.8,2.8,3.8,4.5,6.6,3.7c2.9-0.8,4.6-3.7,3.8-6.5L26,4c-0.8-2.8-3.8-4.5-6.6-3.7
	C16.5,1.1,14.8,4,15.6,6.8z"/>
<path class="st1" d="M37.3,6.5L7.9,38.9c-2,2.2-1.8,5.5,0.5,7.5c2.2,1.9,5.6,1.7,7.6-0.5l29.3-32.4c2-2.2,1.8-5.5-0.5-7.5
	C42.7,4.1,39.2,4.3,37.3,6.5z"/>
<path class="st2" d="M4,24.6l41.8,13.5c2.8,0.9,5.9-0.6,6.8-3.4c0.9-2.8-0.6-5.8-3.4-6.7L7.4,14.5c-2.8-0.9-5.9,0.6-6.8,3.4
	C-0.3,20.7,1.2,23.7,4,24.6z"/>
<path class="st3" d="M82.5,32.5c0-1-0.4-1.8-1.1-2.4c-0.7-0.6-1.6-1.1-2.7-1.6c-1.1-0.5-2.2-1-3.5-1.5c-1.2-0.5-2.4-1.2-3.5-1.9
	c-1.1-0.8-1.9-1.8-2.7-2.9c-0.7-1.1-1-2.6-1-4.4c0-1.5,0.3-2.9,0.8-4c0.5-1.1,1.2-2.1,2.2-2.9c1-0.8,2.1-1.3,3.4-1.7
	c1.3-0.4,2.7-0.5,4.3-0.5c1.8,0,3.6,0.2,5.2,0.5c1.6,0.3,3,0.8,4,1.4L86,15.8c-0.7-0.4-1.7-0.8-3-1.1c-1.3-0.4-2.8-0.5-4.3-0.5
	c-1.4,0-2.6,0.3-3.4,0.9c-0.8,0.6-1.1,1.3-1.1,2.3c0,0.9,0.3,1.7,1,2.3c0.7,0.6,1.6,1.2,2.7,1.7c1.1,0.5,2.3,1,3.5,1.6
	c1.3,0.5,2.4,1.2,3.5,2c1.1,0.8,2,1.7,2.7,2.9c0.7,1.1,1.1,2.5,1.1,4.2c0,1.7-0.3,3.2-0.9,4.4c-0.5,1.2-1.3,2.2-2.4,3
	c-1,0.8-2.2,1.4-3.7,1.8c-1.4,0.4-3,0.6-4.7,0.6c-2.3,0-4.3-0.2-6-0.6c-1.7-0.4-3-0.8-3.8-1.3l2-5.3c0.3,0.2,0.8,0.4,1.3,0.6
	c0.5,0.2,1.1,0.4,1.8,0.6c0.7,0.2,1.4,0.3,2.1,0.5c0.8,0.1,1.5,0.2,2.3,0.2c1.8,0,3.2-0.3,4.2-0.9C82,34.8,82.5,33.8,82.5,32.5z"/>
<path class="st3" d="M112.8,24.8c-0.4-1.5-1.1-2.7-1.9-3.8c-0.9-1.1-2-1.9-3.3-2.4c-1.3-0.6-2.9-0.9-4.7-0.9c-3.4,0-6,1-7.9,3.1
	c-1.9,2.1-2.8,5-2.8,8.8c0,1.8,0.2,3.4,0.6,4.9c0.5,1.5,1.1,2.7,2,3.8c0.9,1,2,1.8,3.4,2.4c1.3,0.6,2.9,0.9,4.7,0.9
	c3.4,0,6-1,7.8-3.1c1.9-2.1,2.8-5,2.8-8.9C113.5,27.9,113.3,26.3,112.8,24.8z M106.3,35c-0.8,1.1-1.9,1.7-3.4,1.7
	c-0.8,0-1.5-0.2-2.1-0.5c-0.6-0.4-1-0.9-1.4-1.5c-0.4-0.6-0.6-1.4-0.8-2.2c-0.2-0.8-0.3-1.8-0.3-2.8c0-2.5,0.4-4.3,1.2-5.3
	s1.9-1.6,3.4-1.6c1.7,0,2.8,0.6,3.5,1.9c0.7,1.3,1,2.9,1,5C107.4,32.1,107.1,33.9,106.3,35z"/>
<path class="st3" d="M123.9,18.4v12.9c0,1.8,0.2,3.2,0.6,4c0.5,0.8,1.3,1.2,2.6,1.2c1.1,0,2-0.3,2.8-1c0.8-0.7,1.3-1.5,1.7-2.4V18.4
	h5.9v15.8c0,1.2,0.1,2.5,0.2,3.7c0.1,1.2,0.3,2.3,0.5,3.2h-4.4l-1-3.4h-0.2c-0.7,1.1-1.7,2.1-2.9,2.9c-1.2,0.8-2.7,1.1-4.4,1.1
	c-1.1,0-2.2-0.2-3.1-0.5c-0.9-0.3-1.7-0.8-2.3-1.5c-0.6-0.7-1.1-1.6-1.4-2.8c-0.3-1.2-0.5-2.7-0.5-4.4V18.4H123.9z"/>
<path class="st3" d="M156.3,23.9c-0.9-0.3-1.8-0.5-2.5-0.5c-1.1,0-1.9,0.3-2.7,0.9c-0.7,0.5-1.2,1.3-1.4,2.1v14.6h-5.9V18.4h4.6
	l0.7,3h0.2c0.5-1.1,1.2-2,2.1-2.6c0.9-0.6,1.9-0.9,3.1-0.9c0.8,0,1.7,0.2,2.7,0.5L156.3,23.9z"/>
<path class="st3" d="M176.3,39.6c-0.9,0.7-2,1.2-3.3,1.5c-1.3,0.4-2.6,0.5-3.9,0.5c-1.8,0-3.4-0.3-4.6-0.9c-1.2-0.6-2.3-1.4-3-2.4
	c-0.8-1.1-1.4-2.3-1.7-3.8c-0.3-1.5-0.5-3.1-0.5-4.9c0-3.8,0.9-6.8,2.6-8.8c1.7-2.1,4.2-3.1,7.5-3.1c1.7,0,3,0.1,4,0.4
	c1,0.3,1.9,0.6,2.8,1l-1.4,4.8c-0.7-0.3-1.4-0.6-2.1-0.8c-0.7-0.2-1.4-0.3-2.3-0.3c-1.6,0-2.9,0.5-3.7,1.6c-0.8,1.1-1.3,2.8-1.3,5.1
	c0,1,0.1,1.9,0.3,2.7c0.2,0.8,0.5,1.5,1,2.1c0.4,0.6,1,1.1,1.6,1.4c0.7,0.3,1.5,0.5,2.4,0.5c1,0,1.8-0.1,2.5-0.4
	c0.7-0.3,1.3-0.6,1.9-1L176.3,39.6z"/>
<path class="st3" d="M197.8,22.5c-0.5-1.2-1.2-2.1-2-2.8c-0.8-0.7-1.8-1.2-2.9-1.5c-1.1-0.3-2.2-0.5-3.4-0.5c-3.4,0-6.1,1-8,3
	c-1.9,2-2.9,5-2.9,9c0,3.7,0.8,6.6,2.5,8.8c1.7,2.1,4.4,3.2,8,3.2c1.8,0,3.4-0.2,4.9-0.7c1.6-0.5,2.8-1.1,3.7-1.9l-1.9-3.9
	c-0.5,0.4-1.3,0.8-2.3,1.2c-1,0.4-2.1,0.5-3.3,0.5c-2,0-3.4-0.5-4.3-1.4c-0.9-1-1.4-2.4-1.4-4.3h13.6c0.2-0.8,0.3-1.5,0.3-2.3
	c0.1-0.7,0.1-1.4,0.1-2C198.6,25.2,198.3,23.7,197.8,22.5z M193.1,27.6h-8.4c0.2-1.5,0.6-2.8,1.3-3.7c0.8-0.9,1.9-1.4,3.4-1.4
	c1.3,0,2.3,0.4,2.9,1.3C193,24.7,193.2,25.9,193.1,27.6z"/>
<path class="st3" d="M219.1,18.3c-1.5-0.3-3.2-0.4-5.2-0.4c-3.7,0-6.5,1-8.4,3.1s-2.9,5.1-2.9,9.2c0,3.9,0.7,6.7,2.1,8.5
	c1.4,1.8,3.6,2.7,6.6,2.7c2.7,0,4.6-0.7,5.6-2.1h0.2v1.4c0,1.6-0.4,2.8-1.1,3.7c-0.7,0.9-2.1,1.4-4.2,1.4c-1.4,0-2.5-0.1-3.4-0.4
	c-0.9-0.3-1.7-0.5-2.4-0.8l-1.2,4.7c0.6,0.3,1.6,0.6,2.8,1c1.3,0.3,3,0.5,5.2,0.5c3.2,0,5.7-0.8,7.5-2.4c1.8-1.5,2.7-4,2.7-7.2V19.2
	C221.9,18.9,220.7,18.5,219.1,18.3z M217,33.6c-0.3,1-0.8,1.8-1.4,2.3c-0.6,0.5-1.5,0.8-2.6,0.8c-1.4,0-2.4-0.6-3.1-1.7
	c-0.7-1.1-1.1-2.8-1.1-5c0-2.5,0.4-4.3,1.3-5.4c0.8-1.1,2-1.7,3.5-1.7c1.4,0,2.6,0.2,3.5,0.6V33.6z"/>
<path class="st3" d="M240.5,23.9c-0.9-0.3-1.8-0.5-2.5-0.5c-1.1,0-1.9,0.3-2.7,0.9c-0.7,0.5-1.2,1.3-1.4,2.1v14.6H228V18.4h4.6
	l0.7,3h0.2c0.5-1.1,1.2-2,2.1-2.6c0.9-0.6,1.9-0.9,3.1-0.9c0.8,0,1.7,0.2,2.7,0.5L240.5,23.9z"/>
<path class="st3" d="M262.5,37.7c-0.1-1.2-0.1-2.5-0.1-3.8c0-1.3,0.1-2.6,0.2-3.9c0.1-1.4,0.1-2.7,0.1-4c0-1.2-0.1-2.3-0.4-3.3
	c-0.2-1-0.7-1.8-1.3-2.5c-0.6-0.7-1.4-1.2-2.5-1.6c-1.1-0.4-2.4-0.6-3.9-0.6c-1.8,0-3.5,0.2-5.2,0.5c-1.7,0.3-3.1,0.7-4.3,1.3
	l1.4,4.4c0.8-0.4,1.9-0.7,3.2-1c1.3-0.2,2.6-0.4,3.8-0.4c1.6,0,2.6,0.4,3,1.1c0.5,0.7,0.6,1.9,0.4,3.6c-2-0.1-3.8,0-5.4,0.2
	c-1.6,0.2-3,0.6-4.2,1.2c-1.1,0.6-2,1.3-2.7,2.3c-0.6,0.9-0.9,2.1-0.9,3.5c0,1,0.2,1.9,0.5,2.7c0.3,0.8,0.8,1.5,1.4,2.1
	c0.6,0.6,1.3,1,2.2,1.4c0.8,0.3,1.8,0.5,2.9,0.5c1.7,0,3.1-0.3,4.1-1c1.1-0.7,1.9-1.5,2.5-2.4h0.2l1,3.1h4.8
	C262.8,40,262.6,38.9,262.5,37.7z M256.2,34.1c-0.3,0.6-0.8,1.2-1.5,1.7c-0.7,0.5-1.6,0.8-2.8,0.8c-0.9,0-1.6-0.2-2.1-0.7
	c-0.5-0.5-0.7-1.1-0.7-2c0-0.6,0.2-1.1,0.6-1.5c0.4-0.4,0.9-0.7,1.6-0.9c0.7-0.2,1.4-0.3,2.3-0.4c0.9-0.1,1.8,0,2.7,0V34.1z"/>
<path class="st3" d="M285.8,20.5c-1.4-1.8-3.5-2.7-6.4-2.7c-1.5,0-2.9,0.3-3.9,0.8c-1.1,0.5-2,1.4-2.8,2.5h-0.2l-0.7-2.7h-4.3v31.7
	h5.9v-9.3c0.6,0.3,1.2,0.5,1.8,0.6c0.6,0.2,1.4,0.2,2.3,0.2c1.7,0,3.1-0.3,4.4-0.9c1.3-0.6,2.4-1.4,3.3-2.5c0.9-1.1,1.6-2.4,2-3.9
	c0.5-1.6,0.7-3.3,0.7-5.3C288,25.1,287.3,22.3,285.8,20.5z M280.6,34.9c-0.8,1.2-2.1,1.8-3.8,1.8c-0.8,0-1.5-0.1-2-0.3
	c-0.5-0.2-0.9-0.5-1.4-0.8v-9.4c0.4-1.1,0.9-2,1.5-2.6c0.7-0.6,1.6-0.9,2.7-0.9c1.5,0,2.6,0.5,3.2,1.6s1,2.6,1,4.6
	C281.9,31.7,281.5,33.7,280.6,34.9z"/>
<path class="st3" d="M306.5,41.1V28.2c0-1.8-0.3-3.2-0.8-4c-0.5-0.8-1.4-1.2-2.8-1.2c-1,0-1.9,0.3-2.8,1c-0.8,0.7-1.4,1.5-1.6,2.6
	v14.5h-5.9V9.3h5.9v11.6h0.2c0.7-1,1.6-1.7,2.7-2.3c1.1-0.6,2.4-0.9,4-0.9c1.1,0,2.2,0.2,3,0.5s1.6,0.8,2.2,1.5
	c0.6,0.7,1,1.6,1.3,2.9c0.3,1.2,0.5,2.6,0.5,4.4v14.1H306.5z"/>
</svg>
