<?xml version="1.0"?>
<svg width="500" height="500" xmlns="http://www.w3.org/2000/svg" xmlns:svg="http://www.w3.org/2000/svg" xmlns:xlink="http://www.w3.org/1999/xlink">
 <defs>
  <symbol height="15px" id="svg_17" viewBox="0 0 15 15" width="15px" xmlns="http://www.w3.org/2000/svg">
   <path d="m0.5,0c-0.14,0 -0.28,0.06 -0.38,0.17c-0.09,0.11 -0.14,0.26 -0.11,0.4l2,14c0.03,0.25 0.24,0.43 0.49,0.43l10,0c0.25,0 0.46,-0.18 0.49,-0.43l1.23,-8.57l-4.85,0l-0.33,4l-3.08,0l-0.42,-5l8.82,0l0.63,-4.43c0.03,-0.14 -0.02,-0.29 -0.11,-0.4c-0.1,-0.11 -0.24,-0.17 -0.38,-0.17l-14,0z" fill="#ffffff"/>
  </symbol>
 </defs>
 <g class="layer">
  <title>Layer 1</title>
  <circle cx="250" cy="250" fill="#ffffff" fill-opacity="0.00" id="svg_6" r="230" stroke="#ffffff" stroke-width="40"/>
  <use id="svg_19" transform="matrix(17.1074 0 0 17.1074 -83.8313 -45.9421)" x="12.06" xlink:href="#svg_17" y="10.2"/>
 </g>
</svg>