<?xml version="1.0" encoding="UTF-8"?>
<svg width="24" height="24" viewBox="0 0 24 24" xmlns="http://www.w3.org/2000/svg" fill="currentColor" style="padding: 9px;">
<path d="M 12 0 C 5.382812 0 0 5.382812 0 12 C 0 18.617188 5.382812 24 12 24 C 18.617188 24 24 18.617188 24 12 C 24 5.382812 18.617188 0 12 0 Z M 12 2 C 17.535156 2 22 6.464844 22 12 C 22 17.535156 17.535156 22 12 22 C 6.464844 22 2 17.535156 2 12 C 2 6.464844 6.464844 2 12 2 Z M 12 2 "/>
<path d="M 6.386719 6.304688 C 6.273438 6.304688 6.160156 6.355469 6.085938 6.441406 C 6.007812 6.527344 5.976562 6.644531 5.992188 6.761719 L 7.59375 17.984375 C 7.621094 18.183594 7.792969 18.328125 7.992188 18.328125 L 16.007812 18.328125 C 16.207031 18.328125 16.378906 18.183594 16.40625 17.984375 L 17.386719 11.113281 L 13.503906 11.113281 L 13.234375 14.320312 L 10.765625 14.320312 L 10.429688 10.3125 L 17.503906 10.3125 L 18.007812 6.761719 C 18.027344 6.644531 17.992188 6.527344 17.914062 6.441406 C 17.839844 6.355469 17.730469 6.304688 17.613281 6.304688 Z M 6.386719 6.304688 "/>
</svg>
