<?xml version="1.0" encoding="UTF-8"?>
<svg viewBox="60.27 60.27 379.46 379.46" xmlns="http://www.w3.org/2000/svg">
<path d="m250 60.269c-104.62 0-189.73 85.106-189.73 189.73 0 104.62 85.108 189.73 189.73 189.73s189.73-85.109 189.73-189.73c0-104.62-85.104-189.73-189.73-189.73zm0 31.62c87.516 0 158.11 70.593 158.11 158.11 0 87.515-70.593 158.11-158.11 158.11s-158.11-70.595-158.11-158.11c0-87.517 70.594-158.11 158.11-158.11z" fill="#fff" style=""/>
<path d="m161.27 159.93c-1.836 0-3.583 0.797-4.788 2.186-1.204 1.386-1.745 3.229-1.486 5.047l25.353 177.46c0.445 3.121 3.12 5.442 6.273 5.442h126.76c3.154 0 5.83-2.321 6.275-5.442l15.521-108.64h-61.429l-4.226 50.705h-39.039l-5.282-63.38h111.79l8.019-56.147c0.262-1.818-0.281-3.661-1.485-5.047-1.204-1.389-2.952-2.186-4.788-2.186h-177.46z" fill="#fff" style=""/>
</svg>
