<?xml version="1.0" encoding="UTF-8"?>
<svg width="24" height="24" viewBox="0 0 24 24" xmlns="http://www.w3.org/2000/svg" fill="currentColor" style="padding: 9px;">
<path d="M 19.511719 13.46875 L 17.453125 6.429688 C 17.328125 6.042969 17.019531 5.785156 16.609375 5.785156 C 16.195312 5.785156 15.863281 6.019531 15.734375 6.40625 L 14.375 10.492188 L 9.625 10.492188 L 8.261719 6.40625 C 8.136719 6.019531 7.800781 5.785156 7.390625 5.785156 C 6.980469 5.785156 6.644531 6.042969 6.542969 6.433594 L 4.492188 13.46875 C 4.414062 13.726562 4.515625 14.007812 4.722656 14.164062 L 11.988281 19.648438 L 19.28125 14.164062 C 19.484375 14.011719 19.585938 13.726562 19.507812 13.46875 Z M 19.511719 13.46875 "/>
<path d="M 12 0 C 5.382812 0 0 5.382812 0 12 C 0 18.617188 5.382812 24 12 24 C 18.617188 24 24 18.617188 24 12 C 24 5.382812 18.617188 0 12 0 Z M 12 2 C 17.535156 2 22 6.464844 22 12 C 22 17.535156 17.535156 22 12 22 C 6.464844 22 2 17.535156 2 12 C 2 6.464844 6.464844 2 12 2 Z M 12 2 "/>
</svg>