<?xml version="1.0" encoding="UTF-8"?>
<svg viewBox="65.72 65.72 368.55 368.55" xmlns="http://www.w3.org/2000/svg">
<path d="m365.32 272.52-31.561-108.04c-1.968-5.944-6.688-9.935-12.999-9.935-6.312 0-11.437 3.584-13.405 9.527l-20.905 62.76h-72.933l-20.905-62.731c-1.968-5.942-7.093-9.528-13.406-9.528-6.311 0-11.435 3.963-12.999 9.937l-31.53 108.01c-1.188 3.964 0.405 8.333 3.562 10.722l111.58 84.204 111.96-84.204c3.127-2.359 4.719-6.731 3.533-10.722z" fill="#fff" style=""/>
<path d="m250 65.722c-101.62 0-184.28 82.661-184.28 184.28 0 101.62 82.662 184.28 184.28 184.28s184.28-82.663 184.28-184.28c0-101.62-82.659-184.28-184.28-184.28zm0 30.712c85 0 153.56 68.564 153.56 153.56 0 84.999-68.564 153.56-153.56 153.56-85.001 0-153.56-68.565-153.56-153.56 0-85.001 68.564-153.56 153.56-153.56z" fill="#fff" style=""/>
</svg>