<?xml version="1.0" encoding="UTF-8"?>
<svg width="24" height="24" viewBox="0 0 24 24" xmlns="http://www.w3.org/2000/svg" fill="currentColor" style="padding: 9px;">
  <path d="M 12 0 C 5.382812 0 0 5.382812 0 12 C 0 18.617188 5.382812 24 12 24 C 18.617188 24 24 18.617188 24 12 C 24 5.382812 18.617188 0 12 0 Z M 12 2 C 17.535156 2 22 6.464844 22 12 C 22 17.535156 17.535156 22 12 22 C 6.464844 22 2 17.535156 2 12 C 2 6.464844 6.464844 2 12 2 Z M 12 2 "/>
  <path fill-rule="evenodd" clip-rule="evenodd" d="M 7.355469 17.96875 C 6.625 17.96875 6.03125 17.375 6.03125 16.644531 L 6.03125 7.355469 C 6.03125 6.625 6.625 6.03125 7.355469 6.03125 L 16.644531 6.03125 C 17.375 6.03125 17.96875 6.625 17.96875 7.355469 L 17.96875 16.644531 C 17.96875 17.375 17.375 17.96875 16.644531 17.96875 Z M 8.019531 15.980469 L 8.019531 8.019531 L 15.980469 8.019531 L 15.980469 15.980469 L 13.988281 15.980469 L 13.988281 10.011719 L 12 10.011719 L 12 15.980469 Z M 8.019531 15.980469 "/>
</svg>