<?xml version="1.0" encoding="UTF-8"?>
<svg viewBox="0 0 500 500" xmlns="http://www.w3.org/2000/svg">
  <path d="M 250 0 C 112.139 0 0 112.14 0 250 C 0 387.861 112.142 500 250 500 C 387.858 500 500 387.857 500 250 C 500 112.139 387.862 0 250 0 Z M 250 41.665 C 365.314 41.665 458.324 134.681 458.324 249.989 C 458.324 365.301 365.308 458.313 250 458.313 C 134.685 458.313 41.676 365.296 41.676 249.989 C 41.676 134.674 134.692 41.665 250 41.665 Z" fill="#fff" />
  <path fill-rule="evenodd" clip-rule="evenodd" d="M 153.262 374.379 C 137.997 374.379 125.621 362.005 125.621 346.74 L 125.621 153.262 C 125.621 137.996 137.997 125.621 153.262 125.621 L 346.742 125.621 C 362.005 125.621 374.379 137.996 374.379 153.262 L 374.379 346.74 C 374.379 362.005 362.005 374.379 346.742 374.379 L 153.262 374.379 Z M 167.081 332.919 L 167.081 167.08 L 332.919 167.08 L 332.919 332.919 L 291.462 332.919 L 291.462 208.539 L 250.001 208.539 L 250.001 332.919 L 167.081 332.919 Z" fill="#fff" />
</svg>