<svg width="1024" height="1024" xmlns="http://www.w3.org/2000/svg" class="icon">
 <g>
  <path style="fill:#616161" d="m637.19486,113.7149l0,189.39658l182.346,0l-170.39071,-189.39658l-11.95529,0zm179.48791,783.24471c6.27696,-6.27594 10.25557,-14.83181 10.25557,-24.52865l0,-517.41227l-195.46171,0l0,0c-12.53448,0 -24.48977,-5.13802 -32.46746,-13.69389l0,0c-8.55586,-7.98588 -13.67444,-19.39165 -13.67444,-32.51555l0,-195.09435l-356.16479,0l0,0c-9.6856,0 -18.23225,3.41887 -24.49898,9.69685c-6.26775,6.27696 -9.69685,14.83282 -9.69685,24.52967l0,0l0,724.48954l0,0c0,9.69685 3.4291,18.25271 9.69685,24.52865c6.26775,6.27798 14.81338,10.27604 24.49898,10.27604l0,0l563.02306,0l0,0c9.67537,0 18.23225,-3.99908 24.48977,-10.27604l0,0zm-587.51283,-835.16112l442.21154,0l2.83865,0l1.71915,1.70892l200.57927,221.34317l1.72018,1.71916l0,2.2789l0,583.58334c0,23.9689 -9.69685,45.63945 -25.071,61.05147l0,0c-15.39257,15.39359 -37.04471,25.09044 -60.97473,25.09044l0,0l-563.02306,0l0,0c-23.36004,0 -45.02138,-9.69685 -60.97473,-25.09044c-15.38336,-15.41304 -25.06998,-37.08257 -25.06998,-61.05147l0,-724.49056c0,-23.38971 9.68662,-45.07049 25.06998,-61.04328c15.95334,-15.40383 37.61469,-25.09966 60.97473,-25.09966l0,0l0,0.00001z"/>
  <text transform="matrix(2.1389683645274573,0,0,2.3220751560780286,-465.638528260996,-407.43422932215736) " stroke="#616161" xml:space="preserve" text-anchor="start" font-family="sans-serif" font-size="250" id="svg_2" y="506.11477" x="391.31442" opacity="undefined" stroke-width="0" fill="#616161">L</text>
 </g>
</svg>