<?xml version="1.0" encoding="UTF-8" standalone="no"?>
<!-- Created with Inkscape (http://www.inkscape.org/) -->

<svg
   xmlns:dc="http://purl.org/dc/elements/1.1/"
   xmlns:cc="http://creativecommons.org/ns#"
   xmlns:rdf="http://www.w3.org/1999/02/22-rdf-syntax-ns#"
   xmlns:svg="http://www.w3.org/2000/svg"
   xmlns="http://www.w3.org/2000/svg"
   xmlns:sodipodi="http://sodipodi.sourceforge.net/DTD/sodipodi-0.dtd"
   xmlns:inkscape="http://www.inkscape.org/namespaces/inkscape"
   width="62.653446mm"
   height="17.215555mm"
   viewBox="0 0 222.0004 60.999998"
   id="svg3522"
   version="1.1"
   inkscape:version="0.91 r13725"
   sodipodi:docname="logo.svg">
  <defs
     id="defs3524" />
  <sodipodi:namedview
     id="base"
     pagecolor="#ffffff"
     bordercolor="#666666"
     borderopacity="1.0"
     inkscape:pageopacity="0.0"
     inkscape:pageshadow="2"
     inkscape:zoom="2.8"
     inkscape:cx="138.06096"
     inkscape:cy="17.963121"
     inkscape:document-units="px"
     inkscape:current-layer="layer1"
     showgrid="false"
     fit-margin-top="0"
     fit-margin-left="0"
     fit-margin-right="0"
     fit-margin-bottom="0"
     inkscape:window-width="1920"
     inkscape:window-height="1015"
     inkscape:window-x="0"
     inkscape:window-y="0"
     inkscape:window-maximized="1" />
  <metadata
     id="metadata3527">
    <rdf:RDF>
      <cc:Work
         rdf:about="">
        <dc:format>image/svg+xml</dc:format>
        <dc:type
           rdf:resource="http://purl.org/dc/dcmitype/StillImage" />
        <dc:title></dc:title>
      </cc:Work>
    </rdf:RDF>
  </metadata>
  <g
     inkscape:label="Calque 1"
     inkscape:groupmode="layer"
     id="layer1"
     transform="translate(-43.28551,-410.43363)">
    <g
       style="display:inline"
       id="g4469"
       transform="translate(-621.55272,-186.17892)">
      <g
         id="g4463">
        <path
           style="fill:#ffffff;fill-opacity:1;stroke:none"
           d="m 774.83823,652.61255 0,-39 c 0,0 14.0008,0 19.5004,0 5.4996,0 10.4996,5 10.5,10.5 4e-4,5.5 0,28.5 0,28.5 l -7,0 c 0,0 -3.9e-4,-18 -4e-4,-27 0,-2.71875 -2,-5 -5,-5 -3.66681,0 -11,0 -11,0 l 0,37 z"
           id="path3118"
           inkscape:connector-curvature="0"
           sodipodi:nodetypes="cczzccssccc" />
        <path
           style="fill:#ffffff;fill-opacity:1;stroke:none"
           d="m 817.83863,652.61255 0,-39 7,0 0,39 z"
           id="path3120"
           inkscape:connector-curvature="0"
           sodipodi:nodetypes="ccccc" />
        <path
           style="fill:#ffffff;fill-opacity:1;stroke:none"
           d="m 817.83863,604.61255 7,0 0,-8 -7,5 z"
           id="path3122"
           inkscape:connector-curvature="0"
           sodipodi:nodetypes="ccccc" />
        <path
           style="fill:#ffffff;fill-opacity:1;stroke:none"
           d="m 844.83863,652.61255 -7,0 0,-39 38.5,0 c 6,0 10.49999,4.5 10.5,10.5 l 0,28.5 -7,5 -4e-4,-32 c -4e-5,-3 -2,-5 -5,-5 l -8.9996,0 0,32 -7,0 0,-32 -14,0 z"
           id="path3124"
           inkscape:connector-curvature="0"
           sodipodi:nodetypes="cccssccsscccccc" />
      </g>
      <g
         id="g4459">
        <path
           style="fill:#f3d400;fill-opacity:1;stroke:none"
           d="m 709.69141,596.61258 c 0,0 -3.41031,2.69499 -6.88691,5.37174 -3.57641,-0.11362 -10.59106,0.68718 -14.39187,2.06946 -3.50133,-2.21819 -6.57787,-4.66728 -6.57787,-4.66728 0,0 -2.62896,4.52282 -4.28224,7.17702 -2.45187,1.30403 -4.91362,2.77074 -7.10764,4.7113 -2.55188,-1.01333 -5.5101,-2.24876 -5.60665,-2.28959 3.37945,6.81645 5.65131,13.64192 11.83134,17.74436 9.83897,-15.53906 55.55981,-14.10685 65.60219,-0.0881 6.49004,-3.38511 9.01412,-10.66815 11.56647,-17.39212 -0.27986,0.0922 -3.75271,1.25487 -6.00396,2.11349 -1.34414,-1.46336 -4.51234,-3.71327 -6.31301,-4.79936 -1.70802,-3.12771 -4.19395,-7.35313 -4.19395,-7.35313 0,0 -2.94437,2.1899 -6.35714,4.5792 -4.61059,-0.85108 -10.1872,-1.88519 -14.87749,-1.62916 -3.19286,-2.62436 -6.40127,-5.54786 -6.40127,-5.54786 z"
           id="path3054"
           inkscape:connector-curvature="0"
           sodipodi:nodetypes="ccccccccccccccccc" />
        <path
           style="fill:#ffe953;fill-opacity:1;stroke:none"
           d="m 668.33241,623.47127 c 0,0 4.78987,11.5978 8.1165,19.65678 14.09625,18.59727 50.09234,19.89014 65.7848,0.36006 3.71345,-8.36876 8.72334,-20.1298 8.72334,-20.1298 -4.0259,5.96409 -10.5778,10.08114 -14.61301,12.29885 -2.86735,1.57082 -9.48338,2.52031 -9.48338,2.52031 l -17.36961,-9.00108 -17.46941,8.82104 c 0,0 -6.52806,-1.04882 -9.4834,-2.4303 -5.96472,-3.18408 -9.9764,-6.94592 -14.20583,-12.09586 z"
           id="path3051"
           inkscape:connector-curvature="0"
           sodipodi:nodetypes="cccccccccc" />
      </g>
    </g>
  </g>
</svg>
